solid CATIA STL
  facet normal  -0.000000e+000  0.000000e+000 -1.000000e+000
    outer loop
      vertex  0.000000e+000  6.800000e+001 -2.000000e+000
      vertex  6.000000e+001  6.800000e+001 -2.000000e+000
      vertex  0.000000e+000  2.000000e+001 -2.000000e+000
    endloop
  endfacet
  facet normal  0.000000e+000  0.000000e+000 -1.000000e+000
    outer loop
      vertex  0.000000e+000  2.000000e+001 -2.000000e+000
      vertex  6.000000e+001  6.800000e+001 -2.000000e+000
      vertex  6.000000e+001  2.000000e+001 -2.000000e+000
    endloop
  endfacet
  facet normal  -0.000000e+000  0.000000e+000  1.000000e+000
    outer loop
      vertex  1.000000e+001  6.800000e+001  3.800000e+001
      vertex  0.000000e+000  6.800000e+001  3.800000e+001
      vertex  1.000000e+001  6.450000e+001  3.800000e+001
    endloop
  endfacet
  facet normal  0.000000e+000  0.000000e+000  1.000000e+000
    outer loop
      vertex  1.000000e+001  6.450000e+001  3.800000e+001
      vertex  0.000000e+000  6.800000e+001  3.800000e+001
      vertex  0.000000e+000  6.450000e+001  3.800000e+001
    endloop
  endfacet
  facet normal  -0.000000e+000  0.000000e+000  1.000000e+000
    outer loop
      vertex  1.000000e+001  2.350000e+001  3.800000e+001
      vertex  0.000000e+000  2.350000e+001  3.800000e+001
      vertex  1.000000e+001  2.000000e+001  3.800000e+001
    endloop
  endfacet
  facet normal  0.000000e+000  0.000000e+000  1.000000e+000
    outer loop
      vertex  1.000000e+001  2.000000e+001  3.800000e+001
      vertex  0.000000e+000  2.350000e+001  3.800000e+001
      vertex  0.000000e+000  2.000000e+001  3.800000e+001
    endloop
  endfacet
  facet normal  0.000000e+000 -1.000000e+000  -0.000000e+000
    outer loop
      vertex  6.000000e+001  2.000000e+001 -2.000000e+000
      vertex  6.000000e+001  2.000000e+001  0.000000e+000
      vertex  4.000000e+001  2.000000e+001 -7.105427e-015
    endloop
  endfacet
  facet normal  -0.000000e+000 -1.000000e+000  -0.000000e+000
    outer loop
      vertex  6.000000e+001  2.000000e+001 -2.000000e+000
      vertex  4.000000e+001  2.000000e+001 -7.105427e-015
      vertex  3.000000e+001  2.000000e+001 -7.105427e-015
    endloop
  endfacet
  facet normal  -0.000000e+000 -1.000000e+000  -0.000000e+000
    outer loop
      vertex  6.000000e+001  2.000000e+001 -2.000000e+000
      vertex  3.000000e+001  2.000000e+001 -7.105427e-015
      vertex  1.000000e+001  2.000000e+001  0.000000e+000
    endloop
  endfacet
  facet normal  0.000000e+000 -1.000000e+000  -0.000000e+000
    outer loop
      vertex  6.000000e+001  2.000000e+001 -2.000000e+000
      vertex  1.000000e+001  2.000000e+001  0.000000e+000
      vertex  0.000000e+000  2.000000e+001 -2.000000e+000
    endloop
  endfacet
  facet normal  0.000000e+000 -1.000000e+000  0.000000e+000
    outer loop
      vertex  4.000000e+001  2.000000e+001  3.800000e+001
      vertex  3.000000e+001  2.000000e+001  3.800000e+001
      vertex  4.000000e+001  2.000000e+001 -7.105427e-015
    endloop
  endfacet
  facet normal  0.000000e+000 -1.000000e+000  0.000000e+000
    outer loop
      vertex  4.000000e+001  2.000000e+001 -7.105427e-015
      vertex  3.000000e+001  2.000000e+001  3.800000e+001
      vertex  3.000000e+001  2.000000e+001 -7.105427e-015
    endloop
  endfacet
  facet normal  0.000000e+000 -1.000000e+000  0.000000e+000
    outer loop
      vertex  0.000000e+000  2.000000e+001  3.800000e+001
      vertex  0.000000e+000  2.000000e+001 -2.000000e+000
      vertex  1.000000e+001  2.000000e+001  3.800000e+001
    endloop
  endfacet
  facet normal  0.000000e+000 -1.000000e+000  -0.000000e+000
    outer loop
      vertex  1.000000e+001  2.000000e+001  3.800000e+001
      vertex  0.000000e+000  2.000000e+001 -2.000000e+000
      vertex  1.000000e+001  2.000000e+001  0.000000e+000
    endloop
  endfacet
  facet normal -1.000000e+000  0.000000e+000  0.000000e+000
    outer loop
      vertex  0.000000e+000  2.350000e+001  3.600000e+001
      vertex  0.000000e+000  2.200000e+001  3.600000e+001
      vertex  0.000000e+000  2.350000e+001  3.800000e+001
    endloop
  endfacet
  facet normal -1.000000e+000  0.000000e+000  0.000000e+000
    outer loop
      vertex  0.000000e+000  6.800000e+001  3.800000e+001
      vertex  0.000000e+000  6.800000e+001 -2.000000e+000
      vertex  0.000000e+000  6.600000e+001  1.000000e+001
    endloop
  endfacet
  facet normal -1.000000e+000  0.000000e+000  0.000000e+000
    outer loop
      vertex  0.000000e+000  6.800000e+001  3.800000e+001
      vertex  0.000000e+000  6.600000e+001  1.000000e+001
      vertex  0.000000e+000  6.600000e+001  1.200000e+001
    endloop
  endfacet
  facet normal -1.000000e+000  0.000000e+000  0.000000e+000
    outer loop
      vertex  0.000000e+000  6.800000e+001  3.800000e+001
      vertex  0.000000e+000  6.600000e+001  1.200000e+001
      vertex  0.000000e+000  6.600000e+001  1.500000e+001
    endloop
  endfacet
  facet normal -1.000000e+000  0.000000e+000  0.000000e+000
    outer loop
      vertex  0.000000e+000  6.800000e+001  3.800000e+001
      vertex  0.000000e+000  6.600000e+001  1.500000e+001
      vertex  0.000000e+000  6.600000e+001  1.700000e+001
    endloop
  endfacet
  facet normal -1.000000e+000  0.000000e+000  0.000000e+000
    outer loop
      vertex  0.000000e+000  6.800000e+001  3.800000e+001
      vertex  0.000000e+000  6.600000e+001  1.700000e+001
      vertex  0.000000e+000  6.600000e+001  3.400000e+001
    endloop
  endfacet
  facet normal -1.000000e+000  0.000000e+000  0.000000e+000
    outer loop
      vertex  0.000000e+000  6.800000e+001  3.800000e+001
      vertex  0.000000e+000  6.600000e+001  3.400000e+001
      vertex  0.000000e+000  6.600000e+001  3.600000e+001
    endloop
  endfacet
  facet normal -1.000000e+000  0.000000e+000  0.000000e+000
    outer loop
      vertex  0.000000e+000  6.800000e+001  3.800000e+001
      vertex  0.000000e+000  6.600000e+001  3.600000e+001
      vertex  0.000000e+000  6.450000e+001  3.600000e+001
    endloop
  endfacet
  facet normal -1.000000e+000  0.000000e+000  0.000000e+000
    outer loop
      vertex  0.000000e+000  6.800000e+001  3.800000e+001
      vertex  0.000000e+000  6.450000e+001  3.600000e+001
      vertex  0.000000e+000  6.450000e+001  3.800000e+001
    endloop
  endfacet
  facet normal -1.000000e+000  -0.000000e+000  0.000000e+000
    outer loop
      vertex  0.000000e+000  2.000000e+001  3.800000e+001
      vertex  0.000000e+000  2.350000e+001  3.800000e+001
      vertex  0.000000e+000  2.200000e+001  3.600000e+001
    endloop
  endfacet
  facet normal -1.000000e+000  -0.000000e+000  -0.000000e+000
    outer loop
      vertex  0.000000e+000  2.000000e+001  3.800000e+001
      vertex  0.000000e+000  2.200000e+001  3.600000e+001
      vertex  0.000000e+000  2.200000e+001  3.400000e+001
    endloop
  endfacet
  facet normal -1.000000e+000  -0.000000e+000  -0.000000e+000
    outer loop
      vertex  0.000000e+000  2.000000e+001  3.800000e+001
      vertex  0.000000e+000  2.200000e+001  3.400000e+001
      vertex  0.000000e+000  2.200000e+001  1.700000e+001
    endloop
  endfacet
  facet normal -1.000000e+000  -0.000000e+000  -0.000000e+000
    outer loop
      vertex  0.000000e+000  2.000000e+001  3.800000e+001
      vertex  0.000000e+000  2.200000e+001  1.700000e+001
      vertex  0.000000e+000  2.200000e+001  1.500000e+001
    endloop
  endfacet
  facet normal -1.000000e+000  -0.000000e+000  -0.000000e+000
    outer loop
      vertex  0.000000e+000  2.000000e+001  3.800000e+001
      vertex  0.000000e+000  2.200000e+001  1.500000e+001
      vertex  0.000000e+000  2.200000e+001  1.200000e+001
    endloop
  endfacet
  facet normal -1.000000e+000  -0.000000e+000  -0.000000e+000
    outer loop
      vertex  0.000000e+000  2.000000e+001  3.800000e+001
      vertex  0.000000e+000  2.200000e+001  1.200000e+001
      vertex  0.000000e+000  2.200000e+001  1.000000e+001
    endloop
  endfacet
  facet normal -1.000000e+000  -0.000000e+000  0.000000e+000
    outer loop
      vertex  0.000000e+000  2.000000e+001  3.800000e+001
      vertex  0.000000e+000  2.200000e+001  1.000000e+001
      vertex  0.000000e+000  2.000000e+001 -2.000000e+000
    endloop
  endfacet
  facet normal -1.000000e+000  -0.000000e+000  0.000000e+000
    outer loop
      vertex  0.000000e+000  6.450000e+001  1.500000e+001
      vertex  0.000000e+000  6.600000e+001  1.500000e+001
      vertex  0.000000e+000  6.450000e+001  1.200000e+001
    endloop
  endfacet
  facet normal -1.000000e+000  0.000000e+000  0.000000e+000
    outer loop
      vertex  0.000000e+000  6.450000e+001  1.200000e+001
      vertex  0.000000e+000  6.600000e+001  1.500000e+001
      vertex  0.000000e+000  6.600000e+001  1.200000e+001
    endloop
  endfacet
  facet normal -1.000000e+000  -0.000000e+000  0.000000e+000
    outer loop
      vertex  0.000000e+000  6.450000e+001  3.400000e+001
      vertex  0.000000e+000  6.600000e+001  3.400000e+001
      vertex  0.000000e+000  6.450000e+001  1.700000e+001
    endloop
  endfacet
  facet normal -1.000000e+000  0.000000e+000  0.000000e+000
    outer loop
      vertex  0.000000e+000  6.450000e+001  1.700000e+001
      vertex  0.000000e+000  6.600000e+001  3.400000e+001
      vertex  0.000000e+000  6.600000e+001  1.700000e+001
    endloop
  endfacet
  facet normal -1.000000e+000  0.000000e+000  0.000000e+000
    outer loop
      vertex  0.000000e+000  6.800000e+001 -2.000000e+000
      vertex  0.000000e+000  6.450000e+001  1.000000e+001
      vertex  0.000000e+000  6.600000e+001  1.000000e+001
    endloop
  endfacet
  facet normal -1.000000e+000  0.000000e+000  0.000000e+000
    outer loop
      vertex  0.000000e+000  6.450000e+001  1.000000e+001
      vertex  0.000000e+000  6.800000e+001 -2.000000e+000
      vertex  0.000000e+000  6.450000e+001  0.000000e+000
    endloop
  endfacet
  facet normal -1.000000e+000  0.000000e+000  -0.000000e+000
    outer loop
      vertex  0.000000e+000  6.450000e+001  0.000000e+000
      vertex  0.000000e+000  6.800000e+001 -2.000000e+000
      vertex  0.000000e+000  2.000000e+001 -2.000000e+000
    endloop
  endfacet
  facet normal -9.999999e-001  0.000000e+000  0.000000e+000
    outer loop
      vertex  0.000000e+000  6.450000e+001  0.000000e+000
      vertex  0.000000e+000  2.000000e+001 -2.000000e+000
      vertex  0.000000e+000  2.350000e+001  0.000000e+000
    endloop
  endfacet
  facet normal -1.000000e+000  -0.000000e+000  0.000000e+000
    outer loop
      vertex  0.000000e+000  2.350000e+001  0.000000e+000
      vertex  0.000000e+000  2.000000e+001 -2.000000e+000
      vertex  0.000000e+000  2.200000e+001  1.000000e+001
    endloop
  endfacet
  facet normal -1.000000e+000  0.000000e+000  0.000000e+000
    outer loop
      vertex  0.000000e+000  2.350000e+001  0.000000e+000
      vertex  0.000000e+000  2.200000e+001  1.000000e+001
      vertex  0.000000e+000  2.350000e+001  1.000000e+001
    endloop
  endfacet
  facet normal -1.000000e+000  0.000000e+000  0.000000e+000
    outer loop
      vertex  0.000000e+000  2.200000e+001  1.200000e+001
      vertex  0.000000e+000  2.200000e+001  1.500000e+001
      vertex  0.000000e+000  2.350000e+001  1.200000e+001
    endloop
  endfacet
  facet normal -1.000000e+000  0.000000e+000  0.000000e+000
    outer loop
      vertex  0.000000e+000  2.350000e+001  1.200000e+001
      vertex  0.000000e+000  2.200000e+001  1.500000e+001
      vertex  0.000000e+000  2.350000e+001  1.500000e+001
    endloop
  endfacet
  facet normal -1.000000e+000  0.000000e+000  0.000000e+000
    outer loop
      vertex  0.000000e+000  2.200000e+001  1.700000e+001
      vertex  0.000000e+000  2.200000e+001  3.400000e+001
      vertex  0.000000e+000  2.350000e+001  1.700000e+001
    endloop
  endfacet
  facet normal -1.000000e+000  0.000000e+000  0.000000e+000
    outer loop
      vertex  0.000000e+000  2.350000e+001  1.700000e+001
      vertex  0.000000e+000  2.200000e+001  3.400000e+001
      vertex  0.000000e+000  2.350000e+001  3.400000e+001
    endloop
  endfacet
  facet normal  0.000000e+000  1.000000e+000  0.000000e+000
    outer loop
      vertex  6.000000e+001  6.800000e+001 -2.000000e+000
      vertex  0.000000e+000  6.800000e+001 -2.000000e+000
      vertex  1.000000e+001  6.800000e+001  0.000000e+000
    endloop
  endfacet
  facet normal  0.000000e+000  1.000000e+000  0.000000e+000
    outer loop
      vertex  6.000000e+001  6.800000e+001 -2.000000e+000
      vertex  1.000000e+001  6.800000e+001  0.000000e+000
      vertex  3.000000e+001  6.800000e+001 -6.415312e-014
    endloop
  endfacet
  facet normal  -0.000000e+000  1.000000e+000  0.000000e+000
    outer loop
      vertex  6.000000e+001  6.800000e+001 -2.000000e+000
      vertex  3.000000e+001  6.800000e+001 -6.415312e-014
      vertex  4.000000e+001  6.800000e+001  0.000000e+000
    endloop
  endfacet
  facet normal  -0.000000e+000  1.000000e+000  0.000000e+000
    outer loop
      vertex  6.000000e+001  6.800000e+001 -2.000000e+000
      vertex  4.000000e+001  6.800000e+001  0.000000e+000
      vertex  6.000000e+001  6.800000e+001  0.000000e+000
    endloop
  endfacet
  facet normal  0.000000e+000  1.000000e+000  -0.000000e+000
    outer loop
      vertex  4.000000e+001  6.800000e+001  3.800000e+001
      vertex  4.000000e+001  6.800000e+001  0.000000e+000
      vertex  3.000000e+001  6.800000e+001  3.800000e+001
    endloop
  endfacet
  facet normal  0.000000e+000  1.000000e+000  0.000000e+000
    outer loop
      vertex  3.000000e+001  6.800000e+001  3.800000e+001
      vertex  4.000000e+001  6.800000e+001  0.000000e+000
      vertex  3.000000e+001  6.800000e+001 -6.415312e-014
    endloop
  endfacet
  facet normal  0.000000e+000  1.000000e+000  0.000000e+000
    outer loop
      vertex  0.000000e+000  6.800000e+001  3.800000e+001
      vertex  1.000000e+001  6.800000e+001  3.800000e+001
      vertex  0.000000e+000  6.800000e+001 -2.000000e+000
    endloop
  endfacet
  facet normal  0.000000e+000  1.000000e+000  0.000000e+000
    outer loop
      vertex  0.000000e+000  6.800000e+001 -2.000000e+000
      vertex  1.000000e+001  6.800000e+001  3.800000e+001
      vertex  1.000000e+001  6.800000e+001  0.000000e+000
    endloop
  endfacet
  facet normal  0.000000e+000 -1.000000e+000  0.000000e+000
    outer loop
      vertex  0.000000e+000  6.450000e+001  0.000000e+000
      vertex  1.000000e+001  6.450000e+001 -1.776357e-015
      vertex  0.000000e+000  6.450000e+001  1.000000e+001
    endloop
  endfacet
  facet normal  0.000000e+000 -1.000000e+000  0.000000e+000
    outer loop
      vertex  0.000000e+000  6.450000e+001  1.000000e+001
      vertex  1.000000e+001  6.450000e+001 -1.776357e-015
      vertex  1.000000e+001  6.450000e+001  1.000000e+001
    endloop
  endfacet
  facet normal  1.000000e+000  -0.000000e+000  0.000000e+000
    outer loop
      vertex  1.000000e+001  6.800000e+001  3.800000e+001
      vertex  1.000000e+001  6.450000e+001  3.800000e+001
      vertex  1.000000e+001  6.450000e+001  3.600000e+001
    endloop
  endfacet
  facet normal  1.000000e+000  0.000000e+000  0.000000e+000
    outer loop
      vertex  1.000000e+001  6.800000e+001  3.800000e+001
      vertex  1.000000e+001  6.450000e+001  3.600000e+001
      vertex  1.000000e+001  6.600000e+001  3.600000e+001
    endloop
  endfacet
  facet normal  1.000000e+000  -0.000000e+000  0.000000e+000
    outer loop
      vertex  1.000000e+001  6.800000e+001  3.800000e+001
      vertex  1.000000e+001  6.600000e+001  3.600000e+001
      vertex  1.000000e+001  6.600000e+001  3.400000e+001
    endloop
  endfacet
  facet normal  1.000000e+000  -0.000000e+000  0.000000e+000
    outer loop
      vertex  1.000000e+001  6.800000e+001  3.800000e+001
      vertex  1.000000e+001  6.600000e+001  3.400000e+001
      vertex  1.000000e+001  6.600000e+001  1.700000e+001
    endloop
  endfacet
  facet normal  1.000000e+000  -0.000000e+000  0.000000e+000
    outer loop
      vertex  1.000000e+001  6.800000e+001  3.800000e+001
      vertex  1.000000e+001  6.600000e+001  1.700000e+001
      vertex  1.000000e+001  6.600000e+001  1.500000e+001
    endloop
  endfacet
  facet normal  1.000000e+000  -0.000000e+000  0.000000e+000
    outer loop
      vertex  1.000000e+001  6.800000e+001  3.800000e+001
      vertex  1.000000e+001  6.600000e+001  1.500000e+001
      vertex  1.000000e+001  6.600000e+001  1.200000e+001
    endloop
  endfacet
  facet normal  1.000000e+000  -0.000000e+000  0.000000e+000
    outer loop
      vertex  1.000000e+001  6.800000e+001  3.800000e+001
      vertex  1.000000e+001  6.600000e+001  1.200000e+001
      vertex  1.000000e+001  6.600000e+001  1.000000e+001
    endloop
  endfacet
  facet normal  1.000000e+000  -0.000000e+000  0.000000e+000
    outer loop
      vertex  1.000000e+001  6.800000e+001  3.800000e+001
      vertex  1.000000e+001  6.600000e+001  1.000000e+001
      vertex  1.000000e+001  6.800000e+001  0.000000e+000
    endloop
  endfacet
  facet normal  1.000000e+000  0.000000e+000  0.000000e+000
    outer loop
      vertex  1.000000e+001  6.450000e+001  1.500000e+001
      vertex  1.000000e+001  6.450000e+001  1.200000e+001
      vertex  1.000000e+001  6.600000e+001  1.500000e+001
    endloop
  endfacet
  facet normal  1.000000e+000  0.000000e+000  0.000000e+000
    outer loop
      vertex  1.000000e+001  6.600000e+001  1.500000e+001
      vertex  1.000000e+001  6.450000e+001  1.200000e+001
      vertex  1.000000e+001  6.600000e+001  1.200000e+001
    endloop
  endfacet
  facet normal  1.000000e+000  0.000000e+000  0.000000e+000
    outer loop
      vertex  1.000000e+001  6.450000e+001  3.400000e+001
      vertex  1.000000e+001  6.450000e+001  1.700000e+001
      vertex  1.000000e+001  6.600000e+001  3.400000e+001
    endloop
  endfacet
  facet normal  1.000000e+000  0.000000e+000  0.000000e+000
    outer loop
      vertex  1.000000e+001  6.600000e+001  3.400000e+001
      vertex  1.000000e+001  6.450000e+001  1.700000e+001
      vertex  1.000000e+001  6.600000e+001  1.700000e+001
    endloop
  endfacet
  facet normal  1.000000e+000  0.000000e+000  0.000000e+000
    outer loop
      vertex  1.000000e+001  6.450000e+001 -1.776357e-015
      vertex  1.000000e+001  6.800000e+001  0.000000e+000
      vertex  1.000000e+001  6.450000e+001  1.000000e+001
    endloop
  endfacet
  facet normal  1.000000e+000  -0.000000e+000  0.000000e+000
    outer loop
      vertex  1.000000e+001  6.450000e+001  1.000000e+001
      vertex  1.000000e+001  6.800000e+001  0.000000e+000
      vertex  1.000000e+001  6.600000e+001  1.000000e+001
    endloop
  endfacet
  facet normal  1.000000e+000  0.000000e+000  0.000000e+000
    outer loop
      vertex  1.000000e+001  2.350000e+001  3.800000e+001
      vertex  1.000000e+001  2.200000e+001  3.600000e+001
      vertex  1.000000e+001  2.350000e+001  3.600000e+001
    endloop
  endfacet
  facet normal  1.000000e+000  0.000000e+000  0.000000e+000
    outer loop
      vertex  1.000000e+001  2.000000e+001  3.800000e+001
      vertex  1.000000e+001  2.000000e+001  0.000000e+000
      vertex  1.000000e+001  2.200000e+001  1.000000e+001
    endloop
  endfacet
  facet normal  1.000000e+000  0.000000e+000  -0.000000e+000
    outer loop
      vertex  1.000000e+001  2.000000e+001  3.800000e+001
      vertex  1.000000e+001  2.200000e+001  1.000000e+001
      vertex  1.000000e+001  2.200000e+001  1.200000e+001
    endloop
  endfacet
  facet normal  1.000000e+000  0.000000e+000  -0.000000e+000
    outer loop
      vertex  1.000000e+001  2.000000e+001  3.800000e+001
      vertex  1.000000e+001  2.200000e+001  1.200000e+001
      vertex  1.000000e+001  2.200000e+001  1.500000e+001
    endloop
  endfacet
  facet normal  1.000000e+000  0.000000e+000  -0.000000e+000
    outer loop
      vertex  1.000000e+001  2.000000e+001  3.800000e+001
      vertex  1.000000e+001  2.200000e+001  1.500000e+001
      vertex  1.000000e+001  2.200000e+001  1.700000e+001
    endloop
  endfacet
  facet normal  1.000000e+000  0.000000e+000  -0.000000e+000
    outer loop
      vertex  1.000000e+001  2.000000e+001  3.800000e+001
      vertex  1.000000e+001  2.200000e+001  1.700000e+001
      vertex  1.000000e+001  2.200000e+001  3.400000e+001
    endloop
  endfacet
  facet normal  1.000000e+000  0.000000e+000  -0.000000e+000
    outer loop
      vertex  1.000000e+001  2.000000e+001  3.800000e+001
      vertex  1.000000e+001  2.200000e+001  3.400000e+001
      vertex  1.000000e+001  2.200000e+001  3.600000e+001
    endloop
  endfacet
  facet normal  1.000000e+000  0.000000e+000  -0.000000e+000
    outer loop
      vertex  1.000000e+001  2.000000e+001  3.800000e+001
      vertex  1.000000e+001  2.200000e+001  3.600000e+001
      vertex  1.000000e+001  2.350000e+001  3.800000e+001
    endloop
  endfacet
  facet normal  1.000000e+000  0.000000e+000  0.000000e+000
    outer loop
      vertex  1.000000e+001  2.200000e+001  1.200000e+001
      vertex  1.000000e+001  2.350000e+001  1.200000e+001
      vertex  1.000000e+001  2.200000e+001  1.500000e+001
    endloop
  endfacet
  facet normal  1.000000e+000  -0.000000e+000  0.000000e+000
    outer loop
      vertex  1.000000e+001  2.200000e+001  1.500000e+001
      vertex  1.000000e+001  2.350000e+001  1.200000e+001
      vertex  1.000000e+001  2.350000e+001  1.500000e+001
    endloop
  endfacet
  facet normal  1.000000e+000  0.000000e+000  0.000000e+000
    outer loop
      vertex  1.000000e+001  2.200000e+001  1.700000e+001
      vertex  1.000000e+001  2.350000e+001  1.700000e+001
      vertex  1.000000e+001  2.200000e+001  3.400000e+001
    endloop
  endfacet
  facet normal  1.000000e+000  -0.000000e+000  0.000000e+000
    outer loop
      vertex  1.000000e+001  2.200000e+001  3.400000e+001
      vertex  1.000000e+001  2.350000e+001  1.700000e+001
      vertex  1.000000e+001  2.350000e+001  3.400000e+001
    endloop
  endfacet
  facet normal  1.000000e+000  0.000000e+000  0.000000e+000
    outer loop
      vertex  1.000000e+001  2.000000e+001  0.000000e+000
      vertex  1.000000e+001  2.350000e+001 -1.776357e-015
      vertex  1.000000e+001  2.200000e+001  1.000000e+001
    endloop
  endfacet
  facet normal  1.000000e+000  -0.000000e+000  0.000000e+000
    outer loop
      vertex  1.000000e+001  2.200000e+001  1.000000e+001
      vertex  1.000000e+001  2.350000e+001 -1.776357e-015
      vertex  1.000000e+001  2.350000e+001  1.000000e+001
    endloop
  endfacet
  facet normal  0.000000e+000  1.000000e+000  0.000000e+000
    outer loop
      vertex  0.000000e+000  2.350000e+001  0.000000e+000
      vertex  0.000000e+000  2.350000e+001  1.000000e+001
      vertex  1.000000e+001  2.350000e+001 -1.776357e-015
    endloop
  endfacet
  facet normal  0.000000e+000  1.000000e+000  -0.000000e+000
    outer loop
      vertex  1.000000e+001  2.350000e+001 -1.776357e-015
      vertex  0.000000e+000  2.350000e+001  1.000000e+001
      vertex  1.000000e+001  2.350000e+001  1.000000e+001
    endloop
  endfacet
  facet normal  0.000000e+000 -5.075305e-016  1.000000e+000
    outer loop
      vertex  6.000000e+001  6.800000e+001  0.000000e+000
      vertex  4.000000e+001  6.800000e+001  0.000000e+000
      vertex  4.000000e+001  6.450000e+001 -1.776357e-015
    endloop
  endfacet
  facet normal -8.881784e-017  0.000000e+000  1.000000e+000
    outer loop
      vertex  6.000000e+001  6.800000e+001  0.000000e+000
      vertex  4.000000e+001  6.450000e+001 -1.776357e-015
      vertex  4.000000e+001  2.350000e+001 -1.776357e-015
    endloop
  endfacet
  facet normal  3.298949e-015 -1.522592e-015  1.000000e+000
    outer loop
      vertex  6.000000e+001  6.800000e+001  0.000000e+000
      vertex  4.000000e+001  2.350000e+001 -1.776357e-015
      vertex  4.000000e+001  2.000000e+001 -7.105427e-015
    endloop
  endfacet
  facet normal -3.552714e-016  0.000000e+000  1.000000e+000
    outer loop
      vertex  6.000000e+001  6.800000e+001  0.000000e+000
      vertex  4.000000e+001  2.000000e+001 -7.105427e-015
      vertex  6.000000e+001  2.000000e+001  0.000000e+000
    endloop
  endfacet
  facet normal  3.207656e-015 -5.075305e-016  1.000000e+000
    outer loop
      vertex  3.000000e+001  6.800000e+001 -6.415312e-014
      vertex  1.000000e+001  6.800000e+001  0.000000e+000
      vertex  1.000000e+001  6.450000e+001 -1.776357e-015
    endloop
  endfacet
  facet normal  3.118838e-015  0.000000e+000  1.000000e+000
    outer loop
      vertex  3.000000e+001  6.800000e+001 -6.415312e-014
      vertex  1.000000e+001  6.450000e+001 -1.776357e-015
      vertex  1.000000e+001  2.350000e+001 -1.776357e-015
    endloop
  endfacet
  facet normal  1.989583e-015  5.075305e-016  1.000000e+000
    outer loop
      vertex  3.000000e+001  6.800000e+001 -6.415312e-014
      vertex  1.000000e+001  2.350000e+001 -1.776357e-015
      vertex  1.000000e+001  2.000000e+001  0.000000e+000
    endloop
  endfacet
  facet normal  3.552714e-016 -1.522592e-015  1.000000e+000
    outer loop
      vertex  1.000000e+001  2.000000e+001  0.000000e+000
      vertex  3.000000e+001  2.000000e+001 -7.105427e-015
      vertex  3.000000e+001  2.350000e+001 -1.776357e-015
    endloop
  endfacet
  facet normal  9.639985e-017 -4.332577e-017  1.000000e+000
    outer loop
      vertex  1.000000e+001  2.000000e+001  0.000000e+000
      vertex  3.000000e+001  2.350000e+001 -1.776357e-015
      vertex  3.000000e+001  6.450000e+001  0.000000e+000
    endloop
  endfacet
  facet normal -4.078306e-014  1.832946e-014  1.000000e+000
    outer loop
      vertex  1.000000e+001  2.000000e+001  0.000000e+000
      vertex  3.000000e+001  6.450000e+001  0.000000e+000
      vertex  3.000000e+001  6.800000e+001 -6.415312e-014
    endloop
  endfacet
  facet normal  0.000000e+000 -4.332577e-017  1.000000e+000
    outer loop
      vertex  3.000000e+001  2.350000e+001 -1.776357e-015
      vertex  4.000000e+001  2.350000e+001 -1.776357e-015
      vertex  3.000000e+001  6.450000e+001  0.000000e+000
    endloop
  endfacet
  facet normal  1.776357e-016  0.000000e+000  1.000000e+000
    outer loop
      vertex  3.000000e+001  6.450000e+001  0.000000e+000
      vertex  4.000000e+001  2.350000e+001 -1.776357e-015
      vertex  4.000000e+001  6.450000e+001 -1.776357e-015
    endloop
  endfacet
  facet normal  1.776357e-016  0.000000e+000  1.000000e+000
    outer loop
      vertex  0.000000e+000  2.350000e+001  0.000000e+000
      vertex  1.000000e+001  2.350000e+001 -1.776357e-015
      vertex  0.000000e+000  6.450000e+001  0.000000e+000
    endloop
  endfacet
  facet normal  1.776357e-016  0.000000e+000  1.000000e+000
    outer loop
      vertex  0.000000e+000  6.450000e+001  0.000000e+000
      vertex  1.000000e+001  2.350000e+001 -1.776357e-015
      vertex  1.000000e+001  6.450000e+001 -1.776357e-015
    endloop
  endfacet
  facet normal  -0.000000e+000  0.000000e+000  1.000000e+000
    outer loop
      vertex  1.000000e+001  6.600000e+001  1.000000e+001
      vertex  0.000000e+000  6.600000e+001  1.000000e+001
      vertex  1.000000e+001  6.450000e+001  1.000000e+001
    endloop
  endfacet
  facet normal  0.000000e+000  0.000000e+000  1.000000e+000
    outer loop
      vertex  1.000000e+001  6.450000e+001  1.000000e+001
      vertex  0.000000e+000  6.600000e+001  1.000000e+001
      vertex  0.000000e+000  6.450000e+001  1.000000e+001
    endloop
  endfacet
  facet normal  0.000000e+000 -1.000000e+000  0.000000e+000
    outer loop
      vertex  0.000000e+000  6.600000e+001  1.000000e+001
      vertex  1.000000e+001  6.600000e+001  1.000000e+001
      vertex  0.000000e+000  6.600000e+001  1.200000e+001
    endloop
  endfacet
  facet normal  0.000000e+000 -1.000000e+000  0.000000e+000
    outer loop
      vertex  0.000000e+000  6.600000e+001  1.200000e+001
      vertex  1.000000e+001  6.600000e+001  1.000000e+001
      vertex  1.000000e+001  6.600000e+001  1.200000e+001
    endloop
  endfacet
  facet normal  0.000000e+000  0.000000e+000 -1.000000e+000
    outer loop
      vertex  1.000000e+001  6.450000e+001  1.200000e+001
      vertex  0.000000e+000  6.450000e+001  1.200000e+001
      vertex  1.000000e+001  6.600000e+001  1.200000e+001
    endloop
  endfacet
  facet normal  -0.000000e+000  0.000000e+000 -1.000000e+000
    outer loop
      vertex  1.000000e+001  6.600000e+001  1.200000e+001
      vertex  0.000000e+000  6.450000e+001  1.200000e+001
      vertex  0.000000e+000  6.600000e+001  1.200000e+001
    endloop
  endfacet
  facet normal  0.000000e+000 -1.000000e+000  0.000000e+000
    outer loop
      vertex  0.000000e+000  6.450000e+001  1.200000e+001
      vertex  1.000000e+001  6.450000e+001  1.200000e+001
      vertex  0.000000e+000  6.450000e+001  1.500000e+001
    endloop
  endfacet
  facet normal  0.000000e+000 -1.000000e+000  0.000000e+000
    outer loop
      vertex  0.000000e+000  6.450000e+001  1.500000e+001
      vertex  1.000000e+001  6.450000e+001  1.200000e+001
      vertex  1.000000e+001  6.450000e+001  1.500000e+001
    endloop
  endfacet
  facet normal  -0.000000e+000  0.000000e+000  1.000000e+000
    outer loop
      vertex  1.000000e+001  6.600000e+001  1.500000e+001
      vertex  0.000000e+000  6.600000e+001  1.500000e+001
      vertex  1.000000e+001  6.450000e+001  1.500000e+001
    endloop
  endfacet
  facet normal  0.000000e+000  0.000000e+000  1.000000e+000
    outer loop
      vertex  1.000000e+001  6.450000e+001  1.500000e+001
      vertex  0.000000e+000  6.600000e+001  1.500000e+001
      vertex  0.000000e+000  6.450000e+001  1.500000e+001
    endloop
  endfacet
  facet normal  0.000000e+000 -1.000000e+000  0.000000e+000
    outer loop
      vertex  0.000000e+000  6.600000e+001  1.500000e+001
      vertex  1.000000e+001  6.600000e+001  1.500000e+001
      vertex  0.000000e+000  6.600000e+001  1.700000e+001
    endloop
  endfacet
  facet normal  0.000000e+000 -1.000000e+000  0.000000e+000
    outer loop
      vertex  0.000000e+000  6.600000e+001  1.700000e+001
      vertex  1.000000e+001  6.600000e+001  1.500000e+001
      vertex  1.000000e+001  6.600000e+001  1.700000e+001
    endloop
  endfacet
  facet normal  0.000000e+000  0.000000e+000 -1.000000e+000
    outer loop
      vertex  1.000000e+001  6.450000e+001  1.700000e+001
      vertex  0.000000e+000  6.450000e+001  1.700000e+001
      vertex  1.000000e+001  6.600000e+001  1.700000e+001
    endloop
  endfacet
  facet normal  -0.000000e+000  0.000000e+000 -1.000000e+000
    outer loop
      vertex  1.000000e+001  6.600000e+001  1.700000e+001
      vertex  0.000000e+000  6.450000e+001  1.700000e+001
      vertex  0.000000e+000  6.600000e+001  1.700000e+001
    endloop
  endfacet
  facet normal  0.000000e+000 -1.000000e+000  0.000000e+000
    outer loop
      vertex  0.000000e+000  6.450000e+001  1.700000e+001
      vertex  1.000000e+001  6.450000e+001  1.700000e+001
      vertex  0.000000e+000  6.450000e+001  3.400000e+001
    endloop
  endfacet
  facet normal  0.000000e+000 -1.000000e+000  0.000000e+000
    outer loop
      vertex  0.000000e+000  6.450000e+001  3.400000e+001
      vertex  1.000000e+001  6.450000e+001  1.700000e+001
      vertex  1.000000e+001  6.450000e+001  3.400000e+001
    endloop
  endfacet
  facet normal  -0.000000e+000  0.000000e+000  1.000000e+000
    outer loop
      vertex  1.000000e+001  6.600000e+001  3.400000e+001
      vertex  0.000000e+000  6.600000e+001  3.400000e+001
      vertex  1.000000e+001  6.450000e+001  3.400000e+001
    endloop
  endfacet
  facet normal  0.000000e+000  0.000000e+000  1.000000e+000
    outer loop
      vertex  1.000000e+001  6.450000e+001  3.400000e+001
      vertex  0.000000e+000  6.600000e+001  3.400000e+001
      vertex  0.000000e+000  6.450000e+001  3.400000e+001
    endloop
  endfacet
  facet normal  0.000000e+000 -1.000000e+000  0.000000e+000
    outer loop
      vertex  0.000000e+000  6.600000e+001  3.400000e+001
      vertex  1.000000e+001  6.600000e+001  3.400000e+001
      vertex  0.000000e+000  6.600000e+001  3.600000e+001
    endloop
  endfacet
  facet normal  0.000000e+000 -1.000000e+000  0.000000e+000
    outer loop
      vertex  0.000000e+000  6.600000e+001  3.600000e+001
      vertex  1.000000e+001  6.600000e+001  3.400000e+001
      vertex  1.000000e+001  6.600000e+001  3.600000e+001
    endloop
  endfacet
  facet normal  0.000000e+000  0.000000e+000 -1.000000e+000
    outer loop
      vertex  1.000000e+001  6.450000e+001  3.600000e+001
      vertex  0.000000e+000  6.450000e+001  3.600000e+001
      vertex  1.000000e+001  6.600000e+001  3.600000e+001
    endloop
  endfacet
  facet normal  -0.000000e+000  0.000000e+000 -1.000000e+000
    outer loop
      vertex  1.000000e+001  6.600000e+001  3.600000e+001
      vertex  0.000000e+000  6.450000e+001  3.600000e+001
      vertex  0.000000e+000  6.600000e+001  3.600000e+001
    endloop
  endfacet
  facet normal  0.000000e+000 -1.000000e+000  0.000000e+000
    outer loop
      vertex  0.000000e+000  6.450000e+001  3.600000e+001
      vertex  1.000000e+001  6.450000e+001  3.600000e+001
      vertex  0.000000e+000  6.450000e+001  3.800000e+001
    endloop
  endfacet
  facet normal  0.000000e+000 -1.000000e+000  0.000000e+000
    outer loop
      vertex  0.000000e+000  6.450000e+001  3.800000e+001
      vertex  1.000000e+001  6.450000e+001  3.600000e+001
      vertex  1.000000e+001  6.450000e+001  3.800000e+001
    endloop
  endfacet
  facet normal  0.000000e+000  1.000000e+000  0.000000e+000
    outer loop
      vertex  0.000000e+000  2.350000e+001  3.600000e+001
      vertex  0.000000e+000  2.350000e+001  3.800000e+001
      vertex  1.000000e+001  2.350000e+001  3.600000e+001
    endloop
  endfacet
  facet normal  0.000000e+000  1.000000e+000  -0.000000e+000
    outer loop
      vertex  1.000000e+001  2.350000e+001  3.600000e+001
      vertex  0.000000e+000  2.350000e+001  3.800000e+001
      vertex  1.000000e+001  2.350000e+001  3.800000e+001
    endloop
  endfacet
  facet normal  0.000000e+000  0.000000e+000 -1.000000e+000
    outer loop
      vertex  1.000000e+001  2.200000e+001  3.600000e+001
      vertex  0.000000e+000  2.200000e+001  3.600000e+001
      vertex  1.000000e+001  2.350000e+001  3.600000e+001
    endloop
  endfacet
  facet normal  -0.000000e+000  0.000000e+000 -1.000000e+000
    outer loop
      vertex  1.000000e+001  2.350000e+001  3.600000e+001
      vertex  0.000000e+000  2.200000e+001  3.600000e+001
      vertex  0.000000e+000  2.350000e+001  3.600000e+001
    endloop
  endfacet
  facet normal  0.000000e+000  1.000000e+000  0.000000e+000
    outer loop
      vertex  0.000000e+000  2.200000e+001  3.400000e+001
      vertex  0.000000e+000  2.200000e+001  3.600000e+001
      vertex  1.000000e+001  2.200000e+001  3.400000e+001
    endloop
  endfacet
  facet normal  0.000000e+000  1.000000e+000  -0.000000e+000
    outer loop
      vertex  1.000000e+001  2.200000e+001  3.400000e+001
      vertex  0.000000e+000  2.200000e+001  3.600000e+001
      vertex  1.000000e+001  2.200000e+001  3.600000e+001
    endloop
  endfacet
  facet normal  -0.000000e+000  0.000000e+000  1.000000e+000
    outer loop
      vertex  1.000000e+001  2.350000e+001  3.400000e+001
      vertex  0.000000e+000  2.350000e+001  3.400000e+001
      vertex  1.000000e+001  2.200000e+001  3.400000e+001
    endloop
  endfacet
  facet normal  0.000000e+000  0.000000e+000  1.000000e+000
    outer loop
      vertex  1.000000e+001  2.200000e+001  3.400000e+001
      vertex  0.000000e+000  2.350000e+001  3.400000e+001
      vertex  0.000000e+000  2.200000e+001  3.400000e+001
    endloop
  endfacet
  facet normal  0.000000e+000  1.000000e+000  0.000000e+000
    outer loop
      vertex  0.000000e+000  2.350000e+001  1.700000e+001
      vertex  0.000000e+000  2.350000e+001  3.400000e+001
      vertex  1.000000e+001  2.350000e+001  1.700000e+001
    endloop
  endfacet
  facet normal  0.000000e+000  1.000000e+000  -0.000000e+000
    outer loop
      vertex  1.000000e+001  2.350000e+001  1.700000e+001
      vertex  0.000000e+000  2.350000e+001  3.400000e+001
      vertex  1.000000e+001  2.350000e+001  3.400000e+001
    endloop
  endfacet
  facet normal  0.000000e+000  0.000000e+000 -1.000000e+000
    outer loop
      vertex  1.000000e+001  2.200000e+001  1.700000e+001
      vertex  0.000000e+000  2.200000e+001  1.700000e+001
      vertex  1.000000e+001  2.350000e+001  1.700000e+001
    endloop
  endfacet
  facet normal  -0.000000e+000  0.000000e+000 -1.000000e+000
    outer loop
      vertex  1.000000e+001  2.350000e+001  1.700000e+001
      vertex  0.000000e+000  2.200000e+001  1.700000e+001
      vertex  0.000000e+000  2.350000e+001  1.700000e+001
    endloop
  endfacet
  facet normal  0.000000e+000  1.000000e+000  0.000000e+000
    outer loop
      vertex  0.000000e+000  2.200000e+001  1.500000e+001
      vertex  0.000000e+000  2.200000e+001  1.700000e+001
      vertex  1.000000e+001  2.200000e+001  1.500000e+001
    endloop
  endfacet
  facet normal  0.000000e+000  1.000000e+000  -0.000000e+000
    outer loop
      vertex  1.000000e+001  2.200000e+001  1.500000e+001
      vertex  0.000000e+000  2.200000e+001  1.700000e+001
      vertex  1.000000e+001  2.200000e+001  1.700000e+001
    endloop
  endfacet
  facet normal  -0.000000e+000  0.000000e+000  1.000000e+000
    outer loop
      vertex  1.000000e+001  2.350000e+001  1.500000e+001
      vertex  0.000000e+000  2.350000e+001  1.500000e+001
      vertex  1.000000e+001  2.200000e+001  1.500000e+001
    endloop
  endfacet
  facet normal  0.000000e+000  0.000000e+000  1.000000e+000
    outer loop
      vertex  1.000000e+001  2.200000e+001  1.500000e+001
      vertex  0.000000e+000  2.350000e+001  1.500000e+001
      vertex  0.000000e+000  2.200000e+001  1.500000e+001
    endloop
  endfacet
  facet normal  0.000000e+000  1.000000e+000  0.000000e+000
    outer loop
      vertex  0.000000e+000  2.350000e+001  1.200000e+001
      vertex  0.000000e+000  2.350000e+001  1.500000e+001
      vertex  1.000000e+001  2.350000e+001  1.200000e+001
    endloop
  endfacet
  facet normal  0.000000e+000  1.000000e+000  -0.000000e+000
    outer loop
      vertex  1.000000e+001  2.350000e+001  1.200000e+001
      vertex  0.000000e+000  2.350000e+001  1.500000e+001
      vertex  1.000000e+001  2.350000e+001  1.500000e+001
    endloop
  endfacet
  facet normal  0.000000e+000  0.000000e+000 -1.000000e+000
    outer loop
      vertex  1.000000e+001  2.200000e+001  1.200000e+001
      vertex  0.000000e+000  2.200000e+001  1.200000e+001
      vertex  1.000000e+001  2.350000e+001  1.200000e+001
    endloop
  endfacet
  facet normal  -0.000000e+000  0.000000e+000 -1.000000e+000
    outer loop
      vertex  1.000000e+001  2.350000e+001  1.200000e+001
      vertex  0.000000e+000  2.200000e+001  1.200000e+001
      vertex  0.000000e+000  2.350000e+001  1.200000e+001
    endloop
  endfacet
  facet normal  0.000000e+000  1.000000e+000  0.000000e+000
    outer loop
      vertex  0.000000e+000  2.200000e+001  1.000000e+001
      vertex  0.000000e+000  2.200000e+001  1.200000e+001
      vertex  1.000000e+001  2.200000e+001  1.000000e+001
    endloop
  endfacet
  facet normal  0.000000e+000  1.000000e+000  -0.000000e+000
    outer loop
      vertex  1.000000e+001  2.200000e+001  1.000000e+001
      vertex  0.000000e+000  2.200000e+001  1.200000e+001
      vertex  1.000000e+001  2.200000e+001  1.200000e+001
    endloop
  endfacet
  facet normal  -0.000000e+000  0.000000e+000  1.000000e+000
    outer loop
      vertex  1.000000e+001  2.350000e+001  1.000000e+001
      vertex  0.000000e+000  2.350000e+001  1.000000e+001
      vertex  1.000000e+001  2.200000e+001  1.000000e+001
    endloop
  endfacet
  facet normal  0.000000e+000  0.000000e+000  1.000000e+000
    outer loop
      vertex  1.000000e+001  2.200000e+001  1.000000e+001
      vertex  0.000000e+000  2.350000e+001  1.000000e+001
      vertex  0.000000e+000  2.200000e+001  1.000000e+001
    endloop
  endfacet
  facet normal  1.000000e+000  -0.000000e+000  0.000000e+000
    outer loop
      vertex  4.000000e+001  6.800000e+001  3.800000e+001
      vertex  4.000000e+001  6.450000e+001  3.800000e+001
      vertex  4.000000e+001  6.450000e+001  3.600000e+001
    endloop
  endfacet
  facet normal  1.000000e+000  0.000000e+000  0.000000e+000
    outer loop
      vertex  4.000000e+001  6.800000e+001  3.800000e+001
      vertex  4.000000e+001  6.450000e+001  3.600000e+001
      vertex  4.000000e+001  6.600000e+001  3.600000e+001
    endloop
  endfacet
  facet normal  1.000000e+000  -0.000000e+000  0.000000e+000
    outer loop
      vertex  4.000000e+001  6.800000e+001  3.800000e+001
      vertex  4.000000e+001  6.600000e+001  3.600000e+001
      vertex  4.000000e+001  6.600000e+001  3.400000e+001
    endloop
  endfacet
  facet normal  1.000000e+000  -0.000000e+000  0.000000e+000
    outer loop
      vertex  4.000000e+001  6.800000e+001  3.800000e+001
      vertex  4.000000e+001  6.600000e+001  3.400000e+001
      vertex  4.000000e+001  6.600000e+001  1.700000e+001
    endloop
  endfacet
  facet normal  1.000000e+000  -0.000000e+000  0.000000e+000
    outer loop
      vertex  4.000000e+001  6.800000e+001  3.800000e+001
      vertex  4.000000e+001  6.600000e+001  1.700000e+001
      vertex  4.000000e+001  6.600000e+001  1.500000e+001
    endloop
  endfacet
  facet normal  1.000000e+000  -0.000000e+000  0.000000e+000
    outer loop
      vertex  4.000000e+001  6.800000e+001  3.800000e+001
      vertex  4.000000e+001  6.600000e+001  1.500000e+001
      vertex  4.000000e+001  6.600000e+001  1.200000e+001
    endloop
  endfacet
  facet normal  1.000000e+000  -0.000000e+000  0.000000e+000
    outer loop
      vertex  4.000000e+001  6.800000e+001  3.800000e+001
      vertex  4.000000e+001  6.600000e+001  1.200000e+001
      vertex  4.000000e+001  6.600000e+001  1.000000e+001
    endloop
  endfacet
  facet normal  1.000000e+000  -0.000000e+000  0.000000e+000
    outer loop
      vertex  4.000000e+001  6.800000e+001  3.800000e+001
      vertex  4.000000e+001  6.600000e+001  1.000000e+001
      vertex  4.000000e+001  6.800000e+001  0.000000e+000
    endloop
  endfacet
  facet normal  1.000000e+000  0.000000e+000  0.000000e+000
    outer loop
      vertex  4.000000e+001  6.450000e+001  1.500000e+001
      vertex  4.000000e+001  6.450000e+001  1.200000e+001
      vertex  4.000000e+001  6.600000e+001  1.500000e+001
    endloop
  endfacet
  facet normal  1.000000e+000  0.000000e+000  0.000000e+000
    outer loop
      vertex  4.000000e+001  6.600000e+001  1.500000e+001
      vertex  4.000000e+001  6.450000e+001  1.200000e+001
      vertex  4.000000e+001  6.600000e+001  1.200000e+001
    endloop
  endfacet
  facet normal  1.000000e+000  0.000000e+000  0.000000e+000
    outer loop
      vertex  4.000000e+001  6.450000e+001  3.400000e+001
      vertex  4.000000e+001  6.450000e+001  1.700000e+001
      vertex  4.000000e+001  6.600000e+001  3.400000e+001
    endloop
  endfacet
  facet normal  1.000000e+000  0.000000e+000  0.000000e+000
    outer loop
      vertex  4.000000e+001  6.600000e+001  3.400000e+001
      vertex  4.000000e+001  6.450000e+001  1.700000e+001
      vertex  4.000000e+001  6.600000e+001  1.700000e+001
    endloop
  endfacet
  facet normal  1.000000e+000  0.000000e+000  0.000000e+000
    outer loop
      vertex  4.000000e+001  6.450000e+001 -1.776357e-015
      vertex  4.000000e+001  6.800000e+001  0.000000e+000
      vertex  4.000000e+001  6.450000e+001  1.000000e+001
    endloop
  endfacet
  facet normal  1.000000e+000  -0.000000e+000  0.000000e+000
    outer loop
      vertex  4.000000e+001  6.450000e+001  1.000000e+001
      vertex  4.000000e+001  6.800000e+001  0.000000e+000
      vertex  4.000000e+001  6.600000e+001  1.000000e+001
    endloop
  endfacet
  facet normal -1.000000e+000  0.000000e+000  0.000000e+000
    outer loop
      vertex  3.000000e+001  6.800000e+001  3.800000e+001
      vertex  3.000000e+001  6.800000e+001 -6.415312e-014
      vertex  3.000000e+001  6.600000e+001  1.000000e+001
    endloop
  endfacet
  facet normal -1.000000e+000  0.000000e+000  0.000000e+000
    outer loop
      vertex  3.000000e+001  6.800000e+001  3.800000e+001
      vertex  3.000000e+001  6.600000e+001  1.000000e+001
      vertex  3.000000e+001  6.600000e+001  1.200000e+001
    endloop
  endfacet
  facet normal -1.000000e+000  0.000000e+000  0.000000e+000
    outer loop
      vertex  3.000000e+001  6.800000e+001  3.800000e+001
      vertex  3.000000e+001  6.600000e+001  1.200000e+001
      vertex  3.000000e+001  6.600000e+001  1.500000e+001
    endloop
  endfacet
  facet normal -1.000000e+000  0.000000e+000  0.000000e+000
    outer loop
      vertex  3.000000e+001  6.800000e+001  3.800000e+001
      vertex  3.000000e+001  6.600000e+001  1.500000e+001
      vertex  3.000000e+001  6.600000e+001  1.700000e+001
    endloop
  endfacet
  facet normal -1.000000e+000  0.000000e+000  0.000000e+000
    outer loop
      vertex  3.000000e+001  6.800000e+001  3.800000e+001
      vertex  3.000000e+001  6.600000e+001  1.700000e+001
      vertex  3.000000e+001  6.600000e+001  3.400000e+001
    endloop
  endfacet
  facet normal -1.000000e+000  0.000000e+000  0.000000e+000
    outer loop
      vertex  3.000000e+001  6.800000e+001  3.800000e+001
      vertex  3.000000e+001  6.600000e+001  3.400000e+001
      vertex  3.000000e+001  6.600000e+001  3.600000e+001
    endloop
  endfacet
  facet normal -1.000000e+000  0.000000e+000  0.000000e+000
    outer loop
      vertex  3.000000e+001  6.800000e+001  3.800000e+001
      vertex  3.000000e+001  6.600000e+001  3.600000e+001
      vertex  3.000000e+001  6.450000e+001  3.600000e+001
    endloop
  endfacet
  facet normal -1.000000e+000  0.000000e+000  0.000000e+000
    outer loop
      vertex  3.000000e+001  6.800000e+001  3.800000e+001
      vertex  3.000000e+001  6.450000e+001  3.600000e+001
      vertex  3.000000e+001  6.450000e+001  3.800000e+001
    endloop
  endfacet
  facet normal -1.000000e+000  -0.000000e+000  0.000000e+000
    outer loop
      vertex  3.000000e+001  6.450000e+001  1.500000e+001
      vertex  3.000000e+001  6.600000e+001  1.500000e+001
      vertex  3.000000e+001  6.450000e+001  1.200000e+001
    endloop
  endfacet
  facet normal -1.000000e+000  0.000000e+000  0.000000e+000
    outer loop
      vertex  3.000000e+001  6.450000e+001  1.200000e+001
      vertex  3.000000e+001  6.600000e+001  1.500000e+001
      vertex  3.000000e+001  6.600000e+001  1.200000e+001
    endloop
  endfacet
  facet normal -1.000000e+000  -0.000000e+000  0.000000e+000
    outer loop
      vertex  3.000000e+001  6.450000e+001  3.400000e+001
      vertex  3.000000e+001  6.600000e+001  3.400000e+001
      vertex  3.000000e+001  6.450000e+001  1.700000e+001
    endloop
  endfacet
  facet normal -1.000000e+000  0.000000e+000  0.000000e+000
    outer loop
      vertex  3.000000e+001  6.450000e+001  1.700000e+001
      vertex  3.000000e+001  6.600000e+001  3.400000e+001
      vertex  3.000000e+001  6.600000e+001  1.700000e+001
    endloop
  endfacet
  facet normal -1.000000e+000  0.000000e+000  0.000000e+000
    outer loop
      vertex  3.000000e+001  6.450000e+001  0.000000e+000
      vertex  3.000000e+001  6.450000e+001  1.000000e+001
      vertex  3.000000e+001  6.800000e+001 -6.415312e-014
    endloop
  endfacet
  facet normal -1.000000e+000  0.000000e+000  0.000000e+000
    outer loop
      vertex  3.000000e+001  6.800000e+001 -6.415312e-014
      vertex  3.000000e+001  6.450000e+001  1.000000e+001
      vertex  3.000000e+001  6.600000e+001  1.000000e+001
    endloop
  endfacet
  facet normal  0.000000e+000 -1.000000e+000  0.000000e+000
    outer loop
      vertex  3.000000e+001  6.450000e+001  0.000000e+000
      vertex  4.000000e+001  6.450000e+001 -1.776357e-015
      vertex  3.000000e+001  6.450000e+001  1.000000e+001
    endloop
  endfacet
  facet normal  0.000000e+000 -1.000000e+000  0.000000e+000
    outer loop
      vertex  3.000000e+001  6.450000e+001  1.000000e+001
      vertex  4.000000e+001  6.450000e+001 -1.776357e-015
      vertex  4.000000e+001  6.450000e+001  1.000000e+001
    endloop
  endfacet
  facet normal  1.000000e+000  0.000000e+000  0.000000e+000
    outer loop
      vertex  4.000000e+001  2.350000e+001  3.800000e+001
      vertex  4.000000e+001  2.200000e+001  3.600000e+001
      vertex  4.000000e+001  2.350000e+001  3.600000e+001
    endloop
  endfacet
  facet normal  1.000000e+000  0.000000e+000  0.000000e+000
    outer loop
      vertex  4.000000e+001  2.000000e+001  3.800000e+001
      vertex  4.000000e+001  2.000000e+001 -7.105427e-015
      vertex  4.000000e+001  2.200000e+001  1.000000e+001
    endloop
  endfacet
  facet normal  1.000000e+000  0.000000e+000  -0.000000e+000
    outer loop
      vertex  4.000000e+001  2.000000e+001  3.800000e+001
      vertex  4.000000e+001  2.200000e+001  1.000000e+001
      vertex  4.000000e+001  2.200000e+001  1.200000e+001
    endloop
  endfacet
  facet normal  1.000000e+000  0.000000e+000  -0.000000e+000
    outer loop
      vertex  4.000000e+001  2.000000e+001  3.800000e+001
      vertex  4.000000e+001  2.200000e+001  1.200000e+001
      vertex  4.000000e+001  2.200000e+001  1.500000e+001
    endloop
  endfacet
  facet normal  1.000000e+000  0.000000e+000  -0.000000e+000
    outer loop
      vertex  4.000000e+001  2.000000e+001  3.800000e+001
      vertex  4.000000e+001  2.200000e+001  1.500000e+001
      vertex  4.000000e+001  2.200000e+001  1.700000e+001
    endloop
  endfacet
  facet normal  1.000000e+000  0.000000e+000  -0.000000e+000
    outer loop
      vertex  4.000000e+001  2.000000e+001  3.800000e+001
      vertex  4.000000e+001  2.200000e+001  1.700000e+001
      vertex  4.000000e+001  2.200000e+001  3.400000e+001
    endloop
  endfacet
  facet normal  1.000000e+000  0.000000e+000  -0.000000e+000
    outer loop
      vertex  4.000000e+001  2.000000e+001  3.800000e+001
      vertex  4.000000e+001  2.200000e+001  3.400000e+001
      vertex  4.000000e+001  2.200000e+001  3.600000e+001
    endloop
  endfacet
  facet normal  1.000000e+000  0.000000e+000  -0.000000e+000
    outer loop
      vertex  4.000000e+001  2.000000e+001  3.800000e+001
      vertex  4.000000e+001  2.200000e+001  3.600000e+001
      vertex  4.000000e+001  2.350000e+001  3.800000e+001
    endloop
  endfacet
  facet normal  1.000000e+000  0.000000e+000  0.000000e+000
    outer loop
      vertex  4.000000e+001  2.200000e+001  1.200000e+001
      vertex  4.000000e+001  2.350000e+001  1.200000e+001
      vertex  4.000000e+001  2.200000e+001  1.500000e+001
    endloop
  endfacet
  facet normal  1.000000e+000  -0.000000e+000  0.000000e+000
    outer loop
      vertex  4.000000e+001  2.200000e+001  1.500000e+001
      vertex  4.000000e+001  2.350000e+001  1.200000e+001
      vertex  4.000000e+001  2.350000e+001  1.500000e+001
    endloop
  endfacet
  facet normal  1.000000e+000  0.000000e+000  0.000000e+000
    outer loop
      vertex  4.000000e+001  2.200000e+001  1.700000e+001
      vertex  4.000000e+001  2.350000e+001  1.700000e+001
      vertex  4.000000e+001  2.200000e+001  3.400000e+001
    endloop
  endfacet
  facet normal  1.000000e+000  -0.000000e+000  0.000000e+000
    outer loop
      vertex  4.000000e+001  2.200000e+001  3.400000e+001
      vertex  4.000000e+001  2.350000e+001  1.700000e+001
      vertex  4.000000e+001  2.350000e+001  3.400000e+001
    endloop
  endfacet
  facet normal  1.000000e+000  0.000000e+000  0.000000e+000
    outer loop
      vertex  4.000000e+001  2.000000e+001 -7.105427e-015
      vertex  4.000000e+001  2.350000e+001 -1.776357e-015
      vertex  4.000000e+001  2.200000e+001  1.000000e+001
    endloop
  endfacet
  facet normal  1.000000e+000  -0.000000e+000  0.000000e+000
    outer loop
      vertex  4.000000e+001  2.200000e+001  1.000000e+001
      vertex  4.000000e+001  2.350000e+001 -1.776357e-015
      vertex  4.000000e+001  2.350000e+001  1.000000e+001
    endloop
  endfacet
  facet normal -1.000000e+000  0.000000e+000  0.000000e+000
    outer loop
      vertex  3.000000e+001  2.350000e+001  3.600000e+001
      vertex  3.000000e+001  2.200000e+001  3.600000e+001
      vertex  3.000000e+001  2.350000e+001  3.800000e+001
    endloop
  endfacet
  facet normal -1.000000e+000  -0.000000e+000  0.000000e+000
    outer loop
      vertex  3.000000e+001  2.000000e+001  3.800000e+001
      vertex  3.000000e+001  2.350000e+001  3.800000e+001
      vertex  3.000000e+001  2.200000e+001  3.600000e+001
    endloop
  endfacet
  facet normal -1.000000e+000  -0.000000e+000  -0.000000e+000
    outer loop
      vertex  3.000000e+001  2.000000e+001  3.800000e+001
      vertex  3.000000e+001  2.200000e+001  3.600000e+001
      vertex  3.000000e+001  2.200000e+001  3.400000e+001
    endloop
  endfacet
  facet normal -1.000000e+000  -0.000000e+000  -0.000000e+000
    outer loop
      vertex  3.000000e+001  2.000000e+001  3.800000e+001
      vertex  3.000000e+001  2.200000e+001  3.400000e+001
      vertex  3.000000e+001  2.200000e+001  1.700000e+001
    endloop
  endfacet
  facet normal -1.000000e+000  -0.000000e+000  -0.000000e+000
    outer loop
      vertex  3.000000e+001  2.000000e+001  3.800000e+001
      vertex  3.000000e+001  2.200000e+001  1.700000e+001
      vertex  3.000000e+001  2.200000e+001  1.500000e+001
    endloop
  endfacet
  facet normal -1.000000e+000  -0.000000e+000  -0.000000e+000
    outer loop
      vertex  3.000000e+001  2.000000e+001  3.800000e+001
      vertex  3.000000e+001  2.200000e+001  1.500000e+001
      vertex  3.000000e+001  2.200000e+001  1.200000e+001
    endloop
  endfacet
  facet normal -1.000000e+000  -0.000000e+000  -0.000000e+000
    outer loop
      vertex  3.000000e+001  2.000000e+001  3.800000e+001
      vertex  3.000000e+001  2.200000e+001  1.200000e+001
      vertex  3.000000e+001  2.200000e+001  1.000000e+001
    endloop
  endfacet
  facet normal -1.000000e+000  -0.000000e+000  0.000000e+000
    outer loop
      vertex  3.000000e+001  2.000000e+001  3.800000e+001
      vertex  3.000000e+001  2.200000e+001  1.000000e+001
      vertex  3.000000e+001  2.000000e+001 -7.105427e-015
    endloop
  endfacet
  facet normal -1.000000e+000  0.000000e+000  0.000000e+000
    outer loop
      vertex  3.000000e+001  2.200000e+001  1.200000e+001
      vertex  3.000000e+001  2.200000e+001  1.500000e+001
      vertex  3.000000e+001  2.350000e+001  1.200000e+001
    endloop
  endfacet
  facet normal -1.000000e+000  0.000000e+000  0.000000e+000
    outer loop
      vertex  3.000000e+001  2.350000e+001  1.200000e+001
      vertex  3.000000e+001  2.200000e+001  1.500000e+001
      vertex  3.000000e+001  2.350000e+001  1.500000e+001
    endloop
  endfacet
  facet normal -1.000000e+000  0.000000e+000  0.000000e+000
    outer loop
      vertex  3.000000e+001  2.200000e+001  1.700000e+001
      vertex  3.000000e+001  2.200000e+001  3.400000e+001
      vertex  3.000000e+001  2.350000e+001  1.700000e+001
    endloop
  endfacet
  facet normal -1.000000e+000  0.000000e+000  0.000000e+000
    outer loop
      vertex  3.000000e+001  2.350000e+001  1.700000e+001
      vertex  3.000000e+001  2.200000e+001  3.400000e+001
      vertex  3.000000e+001  2.350000e+001  3.400000e+001
    endloop
  endfacet
  facet normal -1.000000e+000  0.000000e+000  -0.000000e+000
    outer loop
      vertex  3.000000e+001  2.000000e+001 -7.105427e-015
      vertex  3.000000e+001  2.200000e+001  1.000000e+001
      vertex  3.000000e+001  2.350000e+001 -1.776357e-015
    endloop
  endfacet
  facet normal -1.000000e+000  0.000000e+000  0.000000e+000
    outer loop
      vertex  3.000000e+001  2.350000e+001 -1.776357e-015
      vertex  3.000000e+001  2.200000e+001  1.000000e+001
      vertex  3.000000e+001  2.350000e+001  1.000000e+001
    endloop
  endfacet
  facet normal  0.000000e+000  1.000000e+000  0.000000e+000
    outer loop
      vertex  3.000000e+001  2.350000e+001 -1.776357e-015
      vertex  3.000000e+001  2.350000e+001  1.000000e+001
      vertex  4.000000e+001  2.350000e+001 -1.776357e-015
    endloop
  endfacet
  facet normal  0.000000e+000  1.000000e+000  -0.000000e+000
    outer loop
      vertex  4.000000e+001  2.350000e+001 -1.776357e-015
      vertex  3.000000e+001  2.350000e+001  1.000000e+001
      vertex  4.000000e+001  2.350000e+001  1.000000e+001
    endloop
  endfacet
  facet normal  1.000000e+000  0.000000e+000  0.000000e+000
    outer loop
      vertex  6.000000e+001  2.000000e+001 -2.000000e+000
      vertex  6.000000e+001  6.800000e+001 -2.000000e+000
      vertex  6.000000e+001  2.000000e+001  0.000000e+000
    endloop
  endfacet
  facet normal  1.000000e+000  -0.000000e+000  0.000000e+000
    outer loop
      vertex  6.000000e+001  2.000000e+001  0.000000e+000
      vertex  6.000000e+001  6.800000e+001 -2.000000e+000
      vertex  6.000000e+001  6.800000e+001  0.000000e+000
    endloop
  endfacet
  facet normal  -0.000000e+000  0.000000e+000  1.000000e+000
    outer loop
      vertex  4.000000e+001  6.600000e+001  1.000000e+001
      vertex  3.000000e+001  6.600000e+001  1.000000e+001
      vertex  4.000000e+001  6.450000e+001  1.000000e+001
    endloop
  endfacet
  facet normal  0.000000e+000  0.000000e+000  1.000000e+000
    outer loop
      vertex  4.000000e+001  6.450000e+001  1.000000e+001
      vertex  3.000000e+001  6.600000e+001  1.000000e+001
      vertex  3.000000e+001  6.450000e+001  1.000000e+001
    endloop
  endfacet
  facet normal  0.000000e+000 -1.000000e+000  -0.000000e+000
    outer loop
      vertex  4.000000e+001  6.600000e+001  1.000000e+001
      vertex  4.000000e+001  6.600000e+001  1.200000e+001
      vertex  3.000000e+001  6.600000e+001  1.000000e+001
    endloop
  endfacet
  facet normal  0.000000e+000 -1.000000e+000  0.000000e+000
    outer loop
      vertex  3.000000e+001  6.600000e+001  1.000000e+001
      vertex  4.000000e+001  6.600000e+001  1.200000e+001
      vertex  3.000000e+001  6.600000e+001  1.200000e+001
    endloop
  endfacet
  facet normal  0.000000e+000  0.000000e+000 -1.000000e+000
    outer loop
      vertex  4.000000e+001  6.450000e+001  1.200000e+001
      vertex  3.000000e+001  6.450000e+001  1.200000e+001
      vertex  4.000000e+001  6.600000e+001  1.200000e+001
    endloop
  endfacet
  facet normal  -0.000000e+000  0.000000e+000 -1.000000e+000
    outer loop
      vertex  4.000000e+001  6.600000e+001  1.200000e+001
      vertex  3.000000e+001  6.450000e+001  1.200000e+001
      vertex  3.000000e+001  6.600000e+001  1.200000e+001
    endloop
  endfacet
  facet normal  0.000000e+000 -1.000000e+000  -0.000000e+000
    outer loop
      vertex  4.000000e+001  6.450000e+001  1.200000e+001
      vertex  4.000000e+001  6.450000e+001  1.500000e+001
      vertex  3.000000e+001  6.450000e+001  1.200000e+001
    endloop
  endfacet
  facet normal  0.000000e+000 -1.000000e+000  0.000000e+000
    outer loop
      vertex  3.000000e+001  6.450000e+001  1.200000e+001
      vertex  4.000000e+001  6.450000e+001  1.500000e+001
      vertex  3.000000e+001  6.450000e+001  1.500000e+001
    endloop
  endfacet
  facet normal  -0.000000e+000  0.000000e+000  1.000000e+000
    outer loop
      vertex  4.000000e+001  6.600000e+001  1.500000e+001
      vertex  3.000000e+001  6.600000e+001  1.500000e+001
      vertex  4.000000e+001  6.450000e+001  1.500000e+001
    endloop
  endfacet
  facet normal  0.000000e+000  0.000000e+000  1.000000e+000
    outer loop
      vertex  4.000000e+001  6.450000e+001  1.500000e+001
      vertex  3.000000e+001  6.600000e+001  1.500000e+001
      vertex  3.000000e+001  6.450000e+001  1.500000e+001
    endloop
  endfacet
  facet normal  0.000000e+000 -1.000000e+000  -0.000000e+000
    outer loop
      vertex  4.000000e+001  6.600000e+001  1.500000e+001
      vertex  4.000000e+001  6.600000e+001  1.700000e+001
      vertex  3.000000e+001  6.600000e+001  1.500000e+001
    endloop
  endfacet
  facet normal  0.000000e+000 -1.000000e+000  0.000000e+000
    outer loop
      vertex  3.000000e+001  6.600000e+001  1.500000e+001
      vertex  4.000000e+001  6.600000e+001  1.700000e+001
      vertex  3.000000e+001  6.600000e+001  1.700000e+001
    endloop
  endfacet
  facet normal  0.000000e+000  0.000000e+000 -1.000000e+000
    outer loop
      vertex  4.000000e+001  6.450000e+001  1.700000e+001
      vertex  3.000000e+001  6.450000e+001  1.700000e+001
      vertex  4.000000e+001  6.600000e+001  1.700000e+001
    endloop
  endfacet
  facet normal  -0.000000e+000  0.000000e+000 -1.000000e+000
    outer loop
      vertex  4.000000e+001  6.600000e+001  1.700000e+001
      vertex  3.000000e+001  6.450000e+001  1.700000e+001
      vertex  3.000000e+001  6.600000e+001  1.700000e+001
    endloop
  endfacet
  facet normal  0.000000e+000 -1.000000e+000  -0.000000e+000
    outer loop
      vertex  4.000000e+001  6.450000e+001  1.700000e+001
      vertex  4.000000e+001  6.450000e+001  3.400000e+001
      vertex  3.000000e+001  6.450000e+001  1.700000e+001
    endloop
  endfacet
  facet normal  0.000000e+000 -1.000000e+000  0.000000e+000
    outer loop
      vertex  3.000000e+001  6.450000e+001  1.700000e+001
      vertex  4.000000e+001  6.450000e+001  3.400000e+001
      vertex  3.000000e+001  6.450000e+001  3.400000e+001
    endloop
  endfacet
  facet normal  -0.000000e+000  0.000000e+000  1.000000e+000
    outer loop
      vertex  4.000000e+001  6.600000e+001  3.400000e+001
      vertex  3.000000e+001  6.600000e+001  3.400000e+001
      vertex  4.000000e+001  6.450000e+001  3.400000e+001
    endloop
  endfacet
  facet normal  0.000000e+000  0.000000e+000  1.000000e+000
    outer loop
      vertex  4.000000e+001  6.450000e+001  3.400000e+001
      vertex  3.000000e+001  6.600000e+001  3.400000e+001
      vertex  3.000000e+001  6.450000e+001  3.400000e+001
    endloop
  endfacet
  facet normal  0.000000e+000 -1.000000e+000  -0.000000e+000
    outer loop
      vertex  4.000000e+001  6.600000e+001  3.400000e+001
      vertex  4.000000e+001  6.600000e+001  3.600000e+001
      vertex  3.000000e+001  6.600000e+001  3.400000e+001
    endloop
  endfacet
  facet normal  0.000000e+000 -1.000000e+000  0.000000e+000
    outer loop
      vertex  3.000000e+001  6.600000e+001  3.400000e+001
      vertex  4.000000e+001  6.600000e+001  3.600000e+001
      vertex  3.000000e+001  6.600000e+001  3.600000e+001
    endloop
  endfacet
  facet normal  0.000000e+000  0.000000e+000 -1.000000e+000
    outer loop
      vertex  4.000000e+001  6.450000e+001  3.600000e+001
      vertex  3.000000e+001  6.450000e+001  3.600000e+001
      vertex  4.000000e+001  6.600000e+001  3.600000e+001
    endloop
  endfacet
  facet normal  -0.000000e+000  0.000000e+000 -1.000000e+000
    outer loop
      vertex  4.000000e+001  6.600000e+001  3.600000e+001
      vertex  3.000000e+001  6.450000e+001  3.600000e+001
      vertex  3.000000e+001  6.600000e+001  3.600000e+001
    endloop
  endfacet
  facet normal  0.000000e+000 -1.000000e+000  -0.000000e+000
    outer loop
      vertex  4.000000e+001  6.450000e+001  3.600000e+001
      vertex  4.000000e+001  6.450000e+001  3.800000e+001
      vertex  3.000000e+001  6.450000e+001  3.600000e+001
    endloop
  endfacet
  facet normal  0.000000e+000 -1.000000e+000  0.000000e+000
    outer loop
      vertex  3.000000e+001  6.450000e+001  3.600000e+001
      vertex  4.000000e+001  6.450000e+001  3.800000e+001
      vertex  3.000000e+001  6.450000e+001  3.800000e+001
    endloop
  endfacet
  facet normal  -0.000000e+000  0.000000e+000  1.000000e+000
    outer loop
      vertex  4.000000e+001  6.800000e+001  3.800000e+001
      vertex  3.000000e+001  6.800000e+001  3.800000e+001
      vertex  4.000000e+001  6.450000e+001  3.800000e+001
    endloop
  endfacet
  facet normal  0.000000e+000  0.000000e+000  1.000000e+000
    outer loop
      vertex  4.000000e+001  6.450000e+001  3.800000e+001
      vertex  3.000000e+001  6.800000e+001  3.800000e+001
      vertex  3.000000e+001  6.450000e+001  3.800000e+001
    endloop
  endfacet
  facet normal  -0.000000e+000  0.000000e+000  1.000000e+000
    outer loop
      vertex  4.000000e+001  2.350000e+001  3.800000e+001
      vertex  3.000000e+001  2.350000e+001  3.800000e+001
      vertex  4.000000e+001  2.000000e+001  3.800000e+001
    endloop
  endfacet
  facet normal  0.000000e+000  0.000000e+000  1.000000e+000
    outer loop
      vertex  4.000000e+001  2.000000e+001  3.800000e+001
      vertex  3.000000e+001  2.350000e+001  3.800000e+001
      vertex  3.000000e+001  2.000000e+001  3.800000e+001
    endloop
  endfacet
  facet normal  0.000000e+000  1.000000e+000  0.000000e+000
    outer loop
      vertex  4.000000e+001  2.350000e+001  3.600000e+001
      vertex  3.000000e+001  2.350000e+001  3.600000e+001
      vertex  4.000000e+001  2.350000e+001  3.800000e+001
    endloop
  endfacet
  facet normal  0.000000e+000  1.000000e+000  0.000000e+000
    outer loop
      vertex  4.000000e+001  2.350000e+001  3.800000e+001
      vertex  3.000000e+001  2.350000e+001  3.600000e+001
      vertex  3.000000e+001  2.350000e+001  3.800000e+001
    endloop
  endfacet
  facet normal  0.000000e+000  0.000000e+000 -1.000000e+000
    outer loop
      vertex  4.000000e+001  2.200000e+001  3.600000e+001
      vertex  3.000000e+001  2.200000e+001  3.600000e+001
      vertex  4.000000e+001  2.350000e+001  3.600000e+001
    endloop
  endfacet
  facet normal  -0.000000e+000  0.000000e+000 -1.000000e+000
    outer loop
      vertex  4.000000e+001  2.350000e+001  3.600000e+001
      vertex  3.000000e+001  2.200000e+001  3.600000e+001
      vertex  3.000000e+001  2.350000e+001  3.600000e+001
    endloop
  endfacet
  facet normal  0.000000e+000  1.000000e+000  0.000000e+000
    outer loop
      vertex  4.000000e+001  2.200000e+001  3.400000e+001
      vertex  3.000000e+001  2.200000e+001  3.400000e+001
      vertex  4.000000e+001  2.200000e+001  3.600000e+001
    endloop
  endfacet
  facet normal  0.000000e+000  1.000000e+000  0.000000e+000
    outer loop
      vertex  4.000000e+001  2.200000e+001  3.600000e+001
      vertex  3.000000e+001  2.200000e+001  3.400000e+001
      vertex  3.000000e+001  2.200000e+001  3.600000e+001
    endloop
  endfacet
  facet normal  -0.000000e+000  0.000000e+000  1.000000e+000
    outer loop
      vertex  4.000000e+001  2.350000e+001  3.400000e+001
      vertex  3.000000e+001  2.350000e+001  3.400000e+001
      vertex  4.000000e+001  2.200000e+001  3.400000e+001
    endloop
  endfacet
  facet normal  0.000000e+000  0.000000e+000  1.000000e+000
    outer loop
      vertex  4.000000e+001  2.200000e+001  3.400000e+001
      vertex  3.000000e+001  2.350000e+001  3.400000e+001
      vertex  3.000000e+001  2.200000e+001  3.400000e+001
    endloop
  endfacet
  facet normal  0.000000e+000  1.000000e+000  0.000000e+000
    outer loop
      vertex  4.000000e+001  2.350000e+001  1.700000e+001
      vertex  3.000000e+001  2.350000e+001  1.700000e+001
      vertex  4.000000e+001  2.350000e+001  3.400000e+001
    endloop
  endfacet
  facet normal  0.000000e+000  1.000000e+000  0.000000e+000
    outer loop
      vertex  4.000000e+001  2.350000e+001  3.400000e+001
      vertex  3.000000e+001  2.350000e+001  1.700000e+001
      vertex  3.000000e+001  2.350000e+001  3.400000e+001
    endloop
  endfacet
  facet normal  0.000000e+000  0.000000e+000 -1.000000e+000
    outer loop
      vertex  4.000000e+001  2.200000e+001  1.700000e+001
      vertex  3.000000e+001  2.200000e+001  1.700000e+001
      vertex  4.000000e+001  2.350000e+001  1.700000e+001
    endloop
  endfacet
  facet normal  -0.000000e+000  0.000000e+000 -1.000000e+000
    outer loop
      vertex  4.000000e+001  2.350000e+001  1.700000e+001
      vertex  3.000000e+001  2.200000e+001  1.700000e+001
      vertex  3.000000e+001  2.350000e+001  1.700000e+001
    endloop
  endfacet
  facet normal  0.000000e+000  1.000000e+000  0.000000e+000
    outer loop
      vertex  4.000000e+001  2.200000e+001  1.500000e+001
      vertex  3.000000e+001  2.200000e+001  1.500000e+001
      vertex  4.000000e+001  2.200000e+001  1.700000e+001
    endloop
  endfacet
  facet normal  0.000000e+000  1.000000e+000  0.000000e+000
    outer loop
      vertex  4.000000e+001  2.200000e+001  1.700000e+001
      vertex  3.000000e+001  2.200000e+001  1.500000e+001
      vertex  3.000000e+001  2.200000e+001  1.700000e+001
    endloop
  endfacet
  facet normal  -0.000000e+000  0.000000e+000  1.000000e+000
    outer loop
      vertex  4.000000e+001  2.350000e+001  1.500000e+001
      vertex  3.000000e+001  2.350000e+001  1.500000e+001
      vertex  4.000000e+001  2.200000e+001  1.500000e+001
    endloop
  endfacet
  facet normal  0.000000e+000  0.000000e+000  1.000000e+000
    outer loop
      vertex  4.000000e+001  2.200000e+001  1.500000e+001
      vertex  3.000000e+001  2.350000e+001  1.500000e+001
      vertex  3.000000e+001  2.200000e+001  1.500000e+001
    endloop
  endfacet
  facet normal  0.000000e+000  1.000000e+000  0.000000e+000
    outer loop
      vertex  4.000000e+001  2.350000e+001  1.200000e+001
      vertex  3.000000e+001  2.350000e+001  1.200000e+001
      vertex  4.000000e+001  2.350000e+001  1.500000e+001
    endloop
  endfacet
  facet normal  0.000000e+000  1.000000e+000  0.000000e+000
    outer loop
      vertex  4.000000e+001  2.350000e+001  1.500000e+001
      vertex  3.000000e+001  2.350000e+001  1.200000e+001
      vertex  3.000000e+001  2.350000e+001  1.500000e+001
    endloop
  endfacet
  facet normal  0.000000e+000  0.000000e+000 -1.000000e+000
    outer loop
      vertex  4.000000e+001  2.200000e+001  1.200000e+001
      vertex  3.000000e+001  2.200000e+001  1.200000e+001
      vertex  4.000000e+001  2.350000e+001  1.200000e+001
    endloop
  endfacet
  facet normal  -0.000000e+000  0.000000e+000 -1.000000e+000
    outer loop
      vertex  4.000000e+001  2.350000e+001  1.200000e+001
      vertex  3.000000e+001  2.200000e+001  1.200000e+001
      vertex  3.000000e+001  2.350000e+001  1.200000e+001
    endloop
  endfacet
  facet normal  0.000000e+000  1.000000e+000  0.000000e+000
    outer loop
      vertex  4.000000e+001  2.200000e+001  1.000000e+001
      vertex  3.000000e+001  2.200000e+001  1.000000e+001
      vertex  4.000000e+001  2.200000e+001  1.200000e+001
    endloop
  endfacet
  facet normal  0.000000e+000  1.000000e+000  0.000000e+000
    outer loop
      vertex  4.000000e+001  2.200000e+001  1.200000e+001
      vertex  3.000000e+001  2.200000e+001  1.000000e+001
      vertex  3.000000e+001  2.200000e+001  1.200000e+001
    endloop
  endfacet
  facet normal  -0.000000e+000  0.000000e+000  1.000000e+000
    outer loop
      vertex  4.000000e+001  2.350000e+001  1.000000e+001
      vertex  3.000000e+001  2.350000e+001  1.000000e+001
      vertex  4.000000e+001  2.200000e+001  1.000000e+001
    endloop
  endfacet
  facet normal  0.000000e+000  0.000000e+000  1.000000e+000
    outer loop
      vertex  4.000000e+001  2.200000e+001  1.000000e+001
      vertex  3.000000e+001  2.350000e+001  1.000000e+001
      vertex  3.000000e+001  2.200000e+001  1.000000e+001
    endloop
  endfacet
endsolid CATIA STL
